PathFileType	4	(X/Y/Z)	C:/Users/opensim2020/Desktop/walking_exp_matlab/subject01_walking11_straight_04.trc																																																																																																																																		
DataRate	CameraRate	NumFrames	NumMarkers	Units	OrigDataRate	OrigDataStartFrame	OrigNumFrames																																																																																																																														
100	100	8	44	mm	100	3974	278																																																																																																																														
Frame#	Time	LFHD			RFHD			LBHD			RBHD			C7			T10			CLAV			STRN			RBAK			LSHO			LUPA			LELB			LFRM			LWRA			LWRB			LFIN			RSHO			RUPA			RELB			RFRM			RWRA			RWRB			RFIN			LASI			RASI			LPSI			RPSI			LTHI			LKNE			LTIB			LANK			LHEE			LTOE			RTHI			RKNE			RTIB			RANK			RHEE			RTOE			*39			*40			*41			*42			*43		
		X1	Y1	Z1	X2	Y2	Z2	X3	Y3	Z3	X4	Y4	Z4	X5	Y5	Z5	X6	Y6	Z6	X7	Y7	Z7	X8	Y8	Z8	X9	Y9	Z9	X10	Y10	Z10	X11	Y11	Z11	X12	Y12	Z12	X13	Y13	Z13	X14	Y14	Z14	X15	Y15	Z15	X16	Y16	Z16	X17	Y17	Z17	X18	Y18	Z18	X19	Y19	Z19	X20	Y20	Z20	X21	Y21	Z21	X22	Y22	Z22	X23	Y23	Z23	X24	Y24	Z24	X25	Y25	Z25	X26	Y26	Z26	X27	Y27	Z27	X28	Y28	Z28	X29	Y29	Z29	X30	Y30	Z30	X31	Y31	Z31	X32	Y32	Z32	X33	Y33	Z33	X34	Y34	Z34	X35	Y35	Z35	X36	Y36	Z36	X37	Y37	Z37	X38	Y38	Z38	X39	Y39	Z39	X40	Y40	Z40	X41	Y41	Z41	X42	Y42	Z42	X43	Y43	Z43	X44	Y44	Z44
																																																																																																																																					
105	1.04	-272.88968	1662.97668	971.81525	-243.64839	1666.20532	1083.05408	-390.20642	1629.94495	996.74683	-363.11584	1633.25305	1114.80981	-436.75763	1430.54871	1023.74969	-476.85034	1137.76587	1035.98608	-295.20276	1359.73132	1034.78174	-254.2429	1204.40771	1031.51563	-501.07019	1234.73718	1094.48401	-343.17538	1394.66724	869.8443	-353.80978	1209.77942	784.19452	-345.67838	1056.10327	785.40118	-271.00128	968.55139	759.91071	-151.31508	897.47046	772.13641	-200.9798	868.53394	754.7774	-129.63747	825.9707	738.47424	-375.14877	1389.33826	1178.9657	-456.3335	1193.98364	1270.94458	-460.905	1069.82837	1275.68481	-444.61603	951.96582	1310.77673	-369.82452	829.84814	1303.19702	-417.5607	834.36206	1336.84192	-386.37561	752.73126	1338.07153	-312.13568	926.4765	932.2876	-306.79852	932.66681	1149.40466	-496.39307	943.68896	992.89813	-489.89719	943.12683	1138.27002	-390.58099	597.04675	891.40686	-425.3963	464.52078	910.1629	-515.31085	295.89337	910.0163	-589.65088	90.42459	970.9502	-638.84802	71.17258	1024.61023	-449.85089	35.90094	968.72516	-287.69733	607.42328	1220.58496	-226.07932	464.62778	1190.35046	-223.05762	291.12314	1205.79321	-174.76749	86.29919	1165.81384	-205.28865	31.80179	1115.32483	-31.58939	92.64639	1169.48132	-254.82185	1701.22974	1061.97144	-1973.03857	1023.56537	3101.9458	-2012.4679	1022.12567	3140.67383	NaN	NaN	NaN	NaN	NaN	NaN
106	1.05	-266.25867	1662.44373	973.28406	-236.74284	1665.62732	1084.38806	-383.45776	1629.4541	998.42212	-356.17014	1632.65674	1116.44617	-429.90778	1429.87	1025.38965	-469.5451	1137.05347	1037.41687	-288.25586	1359.27942	1036.16284	-247.12111	1203.96851	1032.6261	-493.75974	1233.83435	1095.94226	-336.55124	1394.25391	871.34766	-347.12442	1209.46094	785.51947	-338.99225	1055.79187	786.38	-264.17169	968.51086	760.75452	-144.18315	897.78528	772.70386	-193.90826	868.70117	755.73169	-122.40618	826.42413	739.01819	-368.03833	1388.62512	1180.49524	-449.05234	1193.26147	1272.5603	-453.7652	1069.10071	1276.90771	-437.70456	951.29828	1312.14832	-363.30664	828.91406	1304.23926	-410.99817	833.50751	1337.99683	-380.0972	751.80634	1339.12488	-304.96933	926.16174	932.77399	-298.94202	931.99799	1149.99902	-488.9498	943.1864	994.16187	-482.18359	942.32251	1139.44275	-385.10321	596.92877	891.73737	-420.68076	464.55527	910.32031	-512.40936	296.77203	910.0592	-588.69922	91.84489	970.7981	-638.26959	73.29644	1024.32422	-449.65005	35.88366	968.73828	-280.24142	606.31378	1220.35852	-218.70979	463.92636	1190.47119	-214.80925	290.36349	1205.92114	-166.5766	85.6895	1166.49939	-197.14586	30.94535	1116.12805	-23.33841	91.90739	1169.34473	-247.93329	1700.7312	1063.47107	-1972.99048	1024.05603	3102.24268	-2012.47949	1021.98431	3140.64551	NaN	NaN	NaN	NaN	NaN	NaN
107	1.06	-259.56851	1661.96021	974.90546	-229.91234	1665.06506	1086.00806	-376.76834	1628.91504	1000.2226	-349.26901	1632.07739	1118.19226	-423.02954	1429.17493	1027.16211	-462.15854	1136.25854	1038.87158	-281.27344	1358.72388	1037.61877	-239.83078	1203.526	1033.84888	-486.41833	1232.86865	1097.49475	-329.9184	1393.84692	872.92212	-340.70401	1209.20996	786.93359	-332.74811	1055.47986	787.30084	-257.27081	968.35333	761.69659	-137.14516	898.0191	773.39679	-186.78447	868.72009	756.27856	-115.23573	826.74579	739.60107	-360.91092	1387.90955	1182.03064	-441.76157	1192.37292	1273.90491	-446.52954	1068.29089	1278.16541	-430.70633	950.33136	1313.16248	-356.62952	827.84113	1305.31848	-404.24548	832.54022	1339.00159	-373.66898	750.78741	1340.14551	-297.55423	925.80804	933.35651	-290.88043	931.18787	1150.703	-481.37924	942.68793	995.40375	-474.26721	941.59882	1140.6134	-379.44684	596.73553	892.13928	-415.63351	464.43936	910.49023	-509.42477	297.59741	909.95013	-587.91406	93.40024	970.55237	-637.64252	75.43224	1024.01941	-449.55383	35.97528	968.6535	-272.39749	605.5191	1220.57581	-211.25027	463.18103	1190.60742	-207.48492	289.46878	1206.67896	-159.54765	84.64703	1166.98987	-190.60722	30.14675	1116.96021	-16.25988	90.55849	1169.19153	-241.13824	1700.1156	1065.08167	-1973.12488	1023.38159	3102.00317	-2012.56873	1022.07507	3140.61914	NaN	NaN	NaN	NaN	NaN	NaN
108	1.07	-252.90164	1661.4823	976.63116	-223.07951	1664.50488	1087.56104	-370.11374	1628.37427	1002.0849	-342.34525	1631.43933	1120.00647	-416.1109	1428.40198	1029.01282	-454.6413	1135.38281	1040.43872	-274.27158	1358.2207	1039.19507	-232.49416	1203.09155	1035.15723	-479.02213	1231.89624	1099.21497	-323.20853	1393.40173	874.59424	-333.65863	1208.93823	788.19818	-326.14313	1055.20313	788.45837	-250.51707	968.24463	762.64038	-130.24448	898.13348	774.17584	-179.8674	868.87616	757.22058	-108.26071	827.03595	740.20386	-353.71851	1387.16284	1183.86792	-434.52884	1191.44189	1275.21411	-439.19125	1067.44165	1279.50183	-423.62643	949.55389	1314.52942	-349.79373	826.75104	1306.46777	-397.4054	831.625	1340.23254	-367.02841	749.68384	1341.15259	-289.93954	925.3717	934.04236	-282.69797	930.36243	1151.37061	-473.63171	942.19501	996.67554	-466.18484	940.87195	1141.71973	-373.43011	596.50275	892.56482	-410.26205	464.20599	910.72083	-505.8844	298.51169	909.97522	-586.86951	95.00981	970.22736	-636.92371	77.62853	1023.75574	-449.47095	35.89261	968.53558	-264.38611	604.73505	1220.62805	-203.68193	462.13177	1190.72266	-200.56221	288.30453	1206.60022	-153.60661	83.22599	1167.04724	-185.56029	29.60741	1117.30505	-10.37842	88.332	1169.05542	-234.36948	1699.61719	1066.66296	-1973.05737	1023.29193	3101.9231	-2012.52893	1022.13763	3140.67163	NaN	NaN	NaN	NaN	NaN	NaN
109	1.08	-246.41145	1660.99731	978.36963	-216.29887	1663.98572	1089.30701	-363.4801	1627.77246	1004.11682	-335.48947	1630.81689	1121.97144	-409.12158	1427.57825	1031.02283	-447.01694	1134.45447	1042.05115	-267.13959	1357.71985	1040.78894	-225.11479	1202.65527	1036.52271	-471.89679	1230.93823	1101.03528	-316.55377	1393.02661	876.35431	-327.06351	1208.66553	789.73065	-319.35635	1054.81165	789.71069	-243.81528	968.09143	763.6449	-123.42329	898.18103	775.0152	-173.12202	868.77124	757.66174	-101.23882	827.00751	740.95532	-346.52243	1386.3811	1185.62683	-427.10187	1190.5332	1276.96533	-431.78207	1066.53699	1280.90479	-416.50287	948.53528	1315.76135	-342.84741	825.66046	1307.75146	-390.49701	830.61133	1341.51733	-360.25562	748.49908	1342.21423	-282.28354	924.88434	934.71216	-274.35703	929.61755	1152.10046	-465.76001	941.66571	997.96393	-457.87436	940.1806	1142.90002	-367.20297	596.16492	893.05334	-404.62805	463.97556	910.97064	-502.18842	299.2966	910.06775	-585.73895	96.78389	969.95154	-636.13251	80.07985	1023.47534	-449.35635	35.96867	968.45209	-256.24597	603.99353	1220.6189	-196.19003	461.05841	1190.79871	-194.27432	286.93481	1207.1178	-148.95779	81.79884	1167.14502	-182.09921	29.49452	1117.53137	-5.68139	85.27603	1168.82764	-227.68472	1699.02002	1068.50391	-1973.12793	1023.56482	3101.96558	-2012.47583	1022.10132	3140.66992	NaN	NaN	NaN	NaN	NaN	NaN
110	1.09	-239.97786	1660.48169	980.11755	-209.57187	1663.46521	1091.01355	-356.88052	1627.09351	1006.24487	-328.62775	1630.09167	1123.97656	-402.11353	1426.68469	1033.04199	-439.24252	1133.42151	1043.69788	-259.98849	1357.1571	1042.46606	-217.6057	1202.17786	1037.94556	-463.93866	1229.76917	1102.90637	-309.83203	1392.56934	878.20233	-320.70416	1208.44739	791.40265	-312.75223	1054.58801	790.98529	-237.2093	967.9306	764.72937	-116.77203	898.07587	775.89771	-166.4003	868.66827	758.59534	-94.52492	827.06805	741.71533	-339.22626	1385.5437	1187.48132	-419.74487	1189.50574	1278.3916	-424.27975	1065.53882	1282.42224	-409.12256	947.48358	1317.03137	-335.73535	824.54041	1309.04846	-383.42841	829.5058	1342.67542	-353.35236	747.14838	1343.19763	-274.44766	924.2652	935.43097	-265.87637	928.92664	1152.84912	-457.68219	941.11115	999.22375	-449.64612	939.57471	1144.19006	-360.61319	595.75092	893.61414	-398.53879	463.5145	911.29993	-498.04224	300.15039	910.33026	-584.74054	98.77592	969.53046	-635.27686	82.61942	1023.01697	-449.25159	35.97112	968.36499	-248.07185	603.09314	1220.37854	-188.87885	459.87622	1191.15063	-188.43831	285.41522	1207.09851	-145.38704	80.10199	1166.85376	-180.23097	29.38476	1117.47925	-2.12927	80.82648	1168.30493	-221.03043	1698.52148	1070.22498	-1973.11084	1023.45288	3101.96289	-2012.49512	1022.0434	3140.67407	NaN	NaN	NaN	NaN	NaN	NaN
111	1.1	-233.491	1660.0249	982.12506	-202.88438	1663.00928	1092.8656	-350.34872	1626.43933	1008.41779	-321.78333	1629.39209	1126.09949	-395.15182	1425.83252	1035.17212	-431.39249	1132.39478	1045.32922	-252.7886	1356.59094	1044.32214	-210.01358	1201.75708	1039.48438	-456.86511	1228.78967	1104.92505	-303.01981	1392.18726	880.12689	-313.87457	1208.10315	792.91522	-306.22842	1054.2478	792.42969	-230.62769	967.65167	765.88623	-110.24375	897.82611	776.8512	-159.74222	868.4585	759.54675	-88.03591	826.84857	742.55432	-331.89935	1384.7218	1189.44543	-412.17691	1188.49597	1280.29431	-416.69046	1064.46313	1283.9574	-401.68814	946.47546	1318.70593	-328.49792	823.34821	1310.51453	-376.29874	828.39185	1344.21069	-346.28317	746.06097	1344.71326	-266.28394	923.58093	936.33563	-257.40555	928.20886	1153.6571	-449.60364	940.55908	1000.52625	-441.21964	938.94611	1145.59668	-353.67834	595.10388	894.3385	-392.09821	463.02188	911.78235	-493.77917	300.99399	910.36774	-583.34698	100.69976	969.10144	-634.35614	85.31061	1022.58374	-449.13522	35.94217	968.31232	-239.94177	602.40253	1220.27002	-181.55116	458.44748	1191.75586	-182.99957	283.90265	1206.74402	-143.0838	78.84747	1166.11926	-179.72546	29.43894	1116.47827	0.05649	74.39728	1168.02026	-214.43839	1698.04126	1072.20813	-1973.05005	1023.55621	3101.90454	-2012.55481	1021.99695	3140.71143	NaN	NaN	NaN	NaN	NaN	NaN
112	1.11	-227.08379	1659.85071	983.8316	-196.13414	1662.81201	1094.80481	-343.73407	1625.89612	1010.63086	-314.91934	1628.85229	1128.26172	-388.23767	1425.18103	1037.35059	-423.47318	1131.51685	1046.99414	-245.5769	1356.12561	1046.08289	-202.39615	1201.54773	1040.89709	-449.15814	1227.83081	1106.80554	-296.21198	1391.91345	882.02087	-307.40817	1207.81934	794.65796	-299.62436	1053.96533	793.86243	-224.18274	967.37628	767.11664	-103.83559	897.45764	777.84241	-153.23741	868.05902	760.60944	-81.73483	826.56592	743.38159	-324.42441	1383.80298	1191.40479	-404.54861	1187.38025	1282.06091	-408.98334	1063.35974	1285.58301	-394.21091	945.2887	1320.01624	-321.08051	822.07715	1311.96094	-368.78763	827.16534	1345.44556	-339.05276	744.55573	1345.8667	-258.13971	922.87616	937.31494	-249.03654	927.65289	1154.48218	-441.3569	939.97736	1001.8382	-432.71869	938.31885	1147.15222	-346.34177	594.45825	895.13544	-385.17834	462.40952	912.50641	-489.35989	301.85532	910.3999	-581.54706	102.59653	968.83167	-633.18488	88.30995	1021.92041	-448.96921	35.98604	968.29492	-231.88824	602.08514	1220.30725	-174.209	457.39249	1192.32385	-178.02505	282.86432	1205.51355	-141.44092	78.38562	1165.40442	-179.38261	30.20249	1115.87256	2.00341	68.11204	1167.70068	-207.87782	1697.78381	1074.21375	-1973.14709	1023.44781	3101.90381	-2012.50891	1022.03064	3140.729	NaN	NaN	NaN	NaN	NaN	NaN
